<?xml version="1.0" standalone="no"?>
<!DOCTYPE svg PUBLIC "-//W3C//DTD SVG 1.1//EN" "http://www.w3.org/Graphics/SVG/1.1/DTD/svg11.dtd">
<svg xmlns="http://www.w3.org/2000/svg">
<defs >
<font id="NotoSerifSinhala" horiz-adv-x="892" ><font-face
    font-family="Noto Serif Sinhala"
    units-per-em="1000"
    panose-1="0 0 0 0 0 0 0 0 0 0"
    ascent="997"
    descent="-307"
    alphabetic="0" />
<glyph unicode=" " horiz-adv-x="500" />
<glyph unicode="!" horiz-adv-x="332" d="M108 714H224L193 201H139L108 714ZM166 -7Q140 -7 122 8T103 61Q103 100 121 114T166 129Q192 129 210 115T229 61Q229 23 211 8T166 -7Z" />
<glyph unicode="&quot;" horiz-adv-x="422" d="M252 799H358L328 564H282L252 799ZM64 799H170L140 564H94L64 799Z" />
<glyph unicode="#" horiz-adv-x="572" d="M121 203H29V262H132L170 458H61V517H181L218 714H278L241 517H385L422 714H482L445 517H543V458H434L397 262H511V203H385L347 0H287L325 203H181L143 0H83L121 203ZM337 262L374 458H230L193 262H337Z" />
<glyph unicode="%" horiz-adv-x="904" d="M596 714H661L305 0H239L596 714ZM213 280Q127 280 88 341T49 503Q49 604 88 664T214 724Q296 724 336 664T377 503Q377 403 337 342T213 280ZM213 321Q242 321 259 342T283 405T290 503Q290 588 274 635T214 682Q185
682 168 661T143 600T135 503Q135 417 152 369T213 321ZM691 -10Q605 -10 566 51T527 213Q527 314 566 374T692 434Q774 434 814 374T855 213Q855 113 815 52T691 -10ZM691 31Q720 31 737 52T761 115T768 213Q768 298 752 345T692 392Q663 392 646 371T621 310T613
213Q613 127 630 79T691 31Z" />
<glyph unicode="&apos;" horiz-adv-x="240" d="M64 799H176L143 564H97L64 799Z" />
<glyph unicode="(" horiz-adv-x="391" d="M359 -264Q287 -240 231 -197T136 -90T77 63T57 269Q57 386 77 475T136 629T231 737T359 804V758Q279 718 234 650T170 487T151 269Q151 148 169 53T233 -110T359 -218V-264Z" />
<glyph unicode=")" horiz-adv-x="391" d="M32 804Q104 780 160 737T255 630T314 476T334 271Q334 154 314 65T255 -89T160 -197T32 -264V-218Q112 -178 157 -110T221 53T240 271Q240 393 222 487T158 650T32 758V804Z" />
<glyph unicode="*" horiz-adv-x="514" d="M239 575L86 480L51 558L219 608L51 658L86 737L240 640L214 799H301L273 641L428 735L463 657L294 608L463 559L428 482L273 575L301 417H214L239 575Z" />
<glyph unicode="+" horiz-adv-x="559" d="M249 328H65V387H249V572H309V387H494V328H309V143H249V328Z" />
<glyph unicode="," horiz-adv-x="270" d="M134 129Q165 129 188 106T211 35Q211 -4 195 -40T143 -106T47 -154V-112Q96 -96 119 -74T142 -22Q142 -7 131 1T106 16T80 35T69 70Q69 99 87 114T134 129Z" />
<glyph unicode="-" horiz-adv-x="340" d="M40 351H300V274H40V351Z" />
<glyph unicode="." horiz-adv-x="270" d="M135 -7Q109 -7 91 8T72 61Q72 100 90 114T135 129Q161 129 179 115T198 61Q198 23 180 8T135 -7Z" />
<glyph unicode="/" horiz-adv-x="423" d="M324 799H387L99 -259H36L324 799Z" />
<glyph unicode="0" horiz-adv-x="559" d="M280 -10Q198 -10 146 36T70 165T45 359Q45 470 69 552T146 679T281 724Q359 724 411 679T488 552T514 358Q514 247 488 165T411 36T280 -10ZM280 44Q331 44 361 81T404 189T417 358Q417 457 404 527T362 633T281 670Q230
670 200 634T156 527T142 358Q142 259 155 189T199 82T280 44Z" />
<glyph unicode="1" horiz-adv-x="559" d="M98 42H169Q192 42 210 47T240 67T251 114V640Q213 594 181 565T118 535Q96 535 82 550T68 589Q98 597 131 613T214 666L284 718H345V114Q345 83 356 68T386 47T427 42H479V0H98V42Z" />
<glyph unicode="2" horiz-adv-x="559" d="M51 73L218 266Q274 331 306 376T351 461T364 547Q364 584 353 612T318 656T258 672Q212 672 187 652T153 598T143 525Q119 525 101 530T73 550T62 590Q62 629 84 659T150 706T258 724Q321 724 366 704T436 646T461 557Q461
529 454 502T432 448T398 393T352 333T294 267L125 80H356Q390 80 406 90T428 117T440 155L444 173H486L481 0H51V73Z" />
<glyph unicode="3" horiz-adv-x="559" d="M244 -10Q178 -10 136 5T75 46T55 101Q55 131 72 148T118 165Q118 113 149 79T245 44Q290 44 325 58T380 107T400 198Q400 266 352 305T213 344H181V395H213Q284 395 329 437T375 550Q375 609 350 640T263 672Q218 672
193 652T159 598T149 525Q113 525 90 538T67 590Q67 629 90 659T157 706T263 724Q358 724 415 683T472 565Q472 520 452 483T395 419T313 381Q341 378 373 369T433 339T480 285T498 200Q498 141 475 101T414 37T332 1T244 -10Z" />
<glyph unicode="4" horiz-adv-x="559" d="M215 42H246Q269 42 287 47T317 67T328 114V196H17V237L326 714H419V252H545V196H419V114Q419 83 430 68T460 47T501 42H516V0H215V42ZM328 252V437Q328 466 328 503T331 579T335 649Q330 639 319 618T293 573T265 526T242
490L89 252H328Z" />
<glyph unicode="5" horiz-adv-x="559" d="M245 -10Q171 -10 130 6T73 45T56 91Q56 119 70 134T116 150Q116 122 129 98T170 59T240 44Q284 44 318 60T371 114T390 217Q390 297 348 335T233 374Q183 374 155 367T108 352L84 359L116 713H450L455 562H413L409 592Q408
606 403 615T387 628T355 633H161L142 413Q157 418 186 423T259 429Q324 429 375 406T457 336T487 218Q487 177 477 142T446 79T397 31T329 1T245 -10Z" />
<glyph unicode="6" horiz-adv-x="559" d="M293 -10Q227 -10 175 27T92 146T61 356Q61 429 77 495T127 612T209 694T326 724Q380 724 415 709T469 670T487 619Q487 591 469 575T413 559Q413 592 404 617T376 657T322 672Q271 672 235 640T180 543T156 380Q173 393
196 405T248 426T313 434Q400 434 454 379T508 226Q508 157 483 104T409 21T293 -10ZM296 44Q334 44 360 62T399 120T412 219Q412 305 382 344T292 383Q264 383 238 374T190 351T155 323Q157 173 195 109T296 44Z" />
<glyph unicode="7" horiz-adv-x="559" d="M422 633H159Q132 633 118 620T101 582L97 532H55L60 713H507V684L261 0H186L422 633Z" />
<glyph unicode="8" horiz-adv-x="559" d="M273 -10Q198 -10 148 14T72 80T46 172Q46 224 66 258T122 318T200 364Q162 386 133 411T87 470T70 545Q70 591 92 632T160 698T281 724Q348 724 393 703T462 644T486 556Q486 490 446 451T345 382Q395 359 432 331T491
269T513 191Q513 96 448 43T273 -10ZM278 40Q348 40 386 73T425 169Q425 203 408 231T352 286T248 340Q201 315 170 273T138 175Q138 109 174 75T278 40ZM296 405Q352 433 375 467T398 554Q398 586 386 613T347 658T279 675Q221 675 189 642T157 557Q157 521 173
495T220 447T296 405Z" />
<glyph unicode="9" horiz-adv-x="559" d="M227 -11Q171 -11 139 2T95 34T82 75Q82 94 91 106T112 123Q121 102 136 84T174 55T228 44Q313 44 355 117T402 346Q388 329 365 313T313 286T248 275Q190 275 146 297T76 365T51 478Q51 550 76 605T150 692T265 724Q333
724 385 689T468 580T498 388Q498 309 483 238T436 110T352 22T227 -11ZM270 334Q303 335 329 347T375 378T403 418Q401 510 384 565T337 646T265 671Q227 671 200 650T160 589T146 488Q146 406 177 370T270 334Z" />
<glyph unicode=":" horiz-adv-x="287" d="M144 391Q118 391 100 406T81 459Q81 498 99 512T144 527Q170 527 188 513T207 459Q207 421 189 406T144 391ZM144 -7Q118 -7 100 8T81 61Q81 100 99 114T144 129Q170 129 188 115T207 61Q207 23 189 8T144 -7Z" />
<glyph unicode=";" horiz-adv-x="287" d="M144 391Q118 391 100 406T81 459Q81 498 99 512T144 527Q170 527 188 513T207 459Q207 421 189 406T144 391ZM140 129Q171 129 194 106T217 35Q217 -4 201 -40T149 -106T53 -154V-112Q102 -96 125 -74T148 -22Q148 -7
137 1T112 16T86 35T75 70Q75 99 93 114T140 129Z" />
<glyph unicode="&lt;" horiz-adv-x="559" d="M65 340V375L494 606V539L155 357L494 177V110L65 340Z" />
<glyph unicode="=" horiz-adv-x="559" d="M65 485H494V426H65V485ZM65 288H494V229H65V288Z" />
<glyph unicode="&gt;" horiz-adv-x="559" d="M65 177L404 359L65 539V606L494 376V341L65 110V177Z" />
<glyph unicode="?" horiz-adv-x="474" d="M220 724Q283 724 332 703T408 641T436 543Q436 488 413 446T348 372T245 314L242 201H188L184 353Q244 377 277 410T325 481T339 560Q339 612 313 643T228 675Q187 675 162 657T127 610T116 546Q80 546 57 562T33 609Q33
633 44 654T79 691T137 715T220 724ZM213 -7Q187 -7 169 8T150 61Q150 100 168 114T213 129Q239 129 257 115T276 61Q276 23 258 8T213 -7Z" />
<glyph unicode="[" horiz-adv-x="353" d="M93 799H311V757H259Q237 757 219 752T191 732T181 685V-145Q181 -192 203 -204T259 -217H311V-259H93V799Z" />
<glyph unicode="\" horiz-adv-x="423" d="M387 -259H324L36 799H99L387 -259Z" />
<glyph unicode="]" horiz-adv-x="353" d="M260 -259H42V-217H94Q117 -217 134 -212T162 -192T172 -145V685Q172 732 150 744T94 757H42V799H260V-259Z" />
<glyph unicode="^" horiz-adv-x="559" d="M261 714H296L507 266H440L278 622L118 266H51L261 714Z" />
<glyph unicode="_" horiz-adv-x="500" d="M0 -83H500V-142H0V-83Z" />
<glyph unicode="{" horiz-adv-x="414" d="M372 -259H302Q232 -259 195 -220T158 -115V143Q158 184 143 206T100 238T40 249V291Q73 292 100 301T142 333T158 396V656Q158 724 195 761T302 799H372V756H329Q285 756 266 730T247 651V402Q247 347 222 314T141 271V270Q198
260 222 227T247 137V-111Q247 -162 266 -189T329 -216H372V-259Z" />
<glyph unicode="|" horiz-adv-x="551" d="M243 799H306V-259H243V799Z" />
<glyph unicode="}" horiz-adv-x="414" d="M42 799H112Q183 799 219 760T256 655V397Q256 356 272 334T314 302T374 291V249Q341 248 315 239T272 207T256 144V-116Q256 -184 220 -221T112 -259H42V-216H85Q129 -216 148 -190T167 -111V138Q167 193 192 226T273
269V270Q216 280 192 313T167 403V651Q167 702 148 729T85 756H42V799Z" />
<glyph unicode="~" horiz-adv-x="559" d="M54 269Q57 298 63 328T82 385T117 428T176 444Q199 444 218 437T258 415T301 378Q322 359 342 344T383 328Q411 328 424 358T444 444H504Q501 418 495 388T475 331T440 287T382 269Q359 269 339 277T300 299T262 332Q239
355 219 370T176 385Q147 385 133 357T113 269H54Z" />
<glyph unicode="&#xa0;" horiz-adv-x="500" />
<glyph unicode="&#xad;" horiz-adv-x="340" d="M40 351H300V274H40V351Z" />
<glyph unicode="&#xd7;" horiz-adv-x="559" d="M71 193L237 359L71 524L113 566L279 400L445 567L487 524L321 358L487 192L445 150L279 316L113 150L71 193Z" />
<glyph unicode="&#xf7;" horiz-adv-x="559" d="M65 387H494V328H65V387ZM280 113Q258 113 244 125T229 168Q229 200 243 211T280 223Q301 223 316 212T331 168Q331 137 316 125T280 113ZM280 492Q258 492 244 504T229 547Q229 579 243 590T280 602Q301 602 316
591T331 547Q331 516 316 504T280 492Z" />
<glyph unicode="&#x2013;" horiz-adv-x="500" d="M40 341H460V282H40V341Z" />
<glyph unicode="&#x2014;" horiz-adv-x="1000" d="M40 341H960V282H40V341Z" />
<glyph unicode="&#x2018;" horiz-adv-x="270" d="M136 523Q105 523 82 546T59 617Q59 656 75 692T127 759T223 806V764Q174 748 151 726T128 674Q128 659 139 651T164 636T190 617T201 582Q201 554 183 539T136 523Z" />
<glyph unicode="&#x2019;" horiz-adv-x="270" d="M134 804Q165 804 188 781T211 710Q211 671 195 635T143 569T47 521V563Q96 579 119 601T142 653Q142 668 131 676T106 691T80 710T69 745Q69 774 87 789T134 804Z" />
<glyph unicode="&#x201c;" horiz-adv-x="470" d="M336 523Q305 523 282 546T259 617Q259 656 275 692T327 759T423 806V764Q374 748 351 726T328 674Q328 659 339 651T364 636T390 617T401 582Q401 554 383 539T336 523ZM136 523Q105 523 82 546T59 617Q59 656
75 692T127 759T223 806V764Q174 748 151 726T128 674Q128 659 139 651T164 636T190 617T201 582Q201 554 183 539T136 523Z" />
<glyph unicode="&#x201d;" horiz-adv-x="470" d="M334 804Q365 804 388 781T411 710Q411 671 395 635T343 569T247 521V563Q296 579 319 601T342 653Q342 668 331 676T306 691T280 710T269 745Q269 774 287 789T334 804ZM134 804Q165 804 188 781T211 711Q211
672 195 635T143 569T47 521V563Q96 579 119 601T142 653Q142 668 131 676T106 691T80 710T69 745Q69 774 87 789T134 804Z" />
</font>
</defs>
</svg>
